<?xml version="1.0" standalone="no"?>
<!DOCTYPE svg PUBLIC "-//W3C//DTD SVG 20010904//EN"
 "http://www.w3.org/TR/2001/REC-SVG-20010904/DTD/svg10.dtd">
<svg version="1.0" xmlns="http://www.w3.org/2000/svg"
 width="400.000000pt" height="400.000000pt" viewBox="0 0 400.000000 400.000000"
 preserveAspectRatio="xMidYMid meet">
<metadata>
Created by potrace 1.11, written by Peter Selinger 2001-2013
</metadata>
<g transform="translate(0.000000,400.000000) scale(0.100000,-0.100000)"
fill="#000000" stroke="none">
<path d="M1551 3983 c8 -10 35 -43 60 -73 98 -117 122 -163 204 -392 25 -70
59 -153 77 -185 38 -71 138 -220 167 -250 28 -29 22 -29 -41 3 -127 64 -260
99 -478 125 -110 12 -299 8 -445 -11 -44 -6 -165 -19 -270 -30 -258 -25 -557
-60 -608 -69 l-42 -8 45 -11 c192 -49 366 -121 518 -213 35 -21 66 -39 69 -39
2 0 49 -35 105 -77 226 -175 292 -220 382 -266 173 -87 376 -149 531 -163 l90
-7 -70 -13 c-155 -27 -374 -121 -497 -214 -127 -96 -244 -220 -326 -345 -175
-267 -441 -540 -629 -647 -29 -17 -53 -32 -53 -35 0 -6 111 0 325 17 66 5 206
14 310 20 305 17 535 53 710 112 144 49 336 141 413 200 62 46 218 198 246
238 l17 25 -6 -25 c-57 -237 -43 -499 44 -875 35 -149 44 -243 38 -420 -5
-154 -10 -201 -32 -317 -5 -24 -3 -38 3 -38 21 0 350 436 444 588 229 371 318
722 264 1047 -8 44 -13 81 -12 82 2 2 24 -29 51 -67 65 -95 163 -184 325 -293
172 -115 315 -222 335 -250 23 -32 19 -10 -25 173 -48 201 -53 224 -80 375
-12 66 -26 139 -31 162 -5 23 -9 53 -9 66 0 75 -81 286 -153 398 -54 84 -177
209 -251 254 -36 22 -64 44 -63 49 2 5 25 21 52 35 44 23 61 26 152 26 57 0
103 3 103 6 0 11 -127 107 -175 132 -67 35 -186 61 -238 53 l-41 -7 83 83 c89
88 163 178 222 268 64 99 104 165 116 190 36 76 73 164 73 175 0 19 -68 75
-91 75 -39 0 -75 -37 -105 -107 -84 -198 -210 -414 -301 -515 -37 -42 -69 -75
-70 -74 -2 2 2 29 8 62 23 121 -3 266 -64 359 -25 38 -118 135 -130 135 -5 0
-6 -9 -2 -20 11 -36 8 -196 -5 -236 -14 -42 -51 -104 -62 -104 -4 0 -11 15
-17 33 -59 198 -153 336 -317 467 -72 57 -219 138 -329 180 -33 13 -64 27 -69
32 -6 4 -16 8 -24 8 -22 0 -258 87 -340 126 -83 38 -101 42 -81 17z"/>
</g>
</svg>
