<?xml version="1.0" encoding="UTF-8"?>
<svg xmlns="http://www.w3.org/2000/svg" viewBox="0 0 760 340" font-family="-apple-system,Helvetica,Arial,sans-serif" font-size="12">
  <defs>
    <marker id="arr2" viewBox="0 0 10 10" refX="9" refY="5" markerWidth="6" markerHeight="6" orient="auto-start-reverse">
      <path d="M0,0 L10,5 L0,10 z" fill="#666"/>
    </marker>
  </defs>

  <text x="70"  y="20" text-anchor="middle" fill="#888" font-size="11">2020</text>
  <text x="240" y="20" text-anchor="middle" fill="#888" font-size="11">2021</text>
  <text x="380" y="20" text-anchor="middle" fill="#888" font-size="11">2022</text>
  <text x="520" y="20" text-anchor="middle" fill="#888" font-size="11">2023</text>
  <text x="680" y="20" text-anchor="middle" fill="#888" font-size="11">2024+</text>
  <line x1="20" y1="30" x2="740" y2="30" stroke="#ddd"/>

  <text x="20" y="70" font-weight="600" fill="#1f5fa8">LSS 系</text>
  <rect x="40"  y="55" width="60" height="28" rx="6" fill="#eef5ff" stroke="#4a90e2"/>
  <text x="70"  y="73" text-anchor="middle" fill="#333">LSS</text>
  <rect x="220" y="55" width="80" height="28" rx="6" fill="#eef5ff" stroke="#4a90e2"/>
  <text x="260" y="73" text-anchor="middle" fill="#333">BEVDet</text>
  <rect x="360" y="55" width="90" height="28" rx="6" fill="#eef5ff" stroke="#4a90e2"/>
  <text x="405" y="73" text-anchor="middle" fill="#333">BEVDepth</text>
  <line x1="100" y1="69" x2="220" y2="69" stroke="#666" marker-end="url(#arr2)"/>
  <line x1="300" y1="69" x2="360" y2="69" stroke="#666" marker-end="url(#arr2)"/>

  <text x="20" y="135" font-weight="600" fill="#2e7d32">BEV Transformer</text>
  <rect x="40"  y="120" width="70" height="28" rx="6" fill="#eefaee" stroke="#4caf50"/>
  <text x="75"  y="138" text-anchor="middle" fill="#333">DETR</text>
  <rect x="180" y="120" width="120" height="28" rx="6" fill="#eefaee" stroke="#4caf50"/>
  <text x="240" y="138" text-anchor="middle" fill="#333">Deformable DETR</text>
  <rect x="360" y="120" width="100" height="28" rx="6" fill="#eefaee" stroke="#4caf50"/>
  <text x="410" y="138" text-anchor="middle" fill="#333">BEVFormer</text>
  <line x1="110" y1="134" x2="180" y2="134" stroke="#666" marker-end="url(#arr2)"/>
  <line x1="300" y1="134" x2="360" y2="134" stroke="#666" marker-end="url(#arr2)"/>

  <text x="20" y="200" font-weight="600" fill="#a85c12">Sparse Query</text>
  <rect x="180" y="185" width="80" height="28" rx="6" fill="#fff4e6" stroke="#f0932b"/>
  <text x="220" y="203" text-anchor="middle" fill="#333">DETR3D</text>
  <rect x="290" y="185" width="60" height="28" rx="6" fill="#fff4e6" stroke="#f0932b"/>
  <text x="320" y="203" text-anchor="middle" fill="#333">PETR</text>
  <rect x="380" y="185" width="80" height="28" rx="6" fill="#fff4e6" stroke="#f0932b"/>
  <text x="420" y="203" text-anchor="middle" fill="#333">Sparse4D</text>
  <rect x="490" y="185" width="100" height="28" rx="6" fill="#fff4e6" stroke="#f0932b"/>
  <text x="540" y="203" text-anchor="middle" fill="#333">StreamPETR</text>
  <line x1="260" y1="199" x2="290" y2="199" stroke="#666" marker-end="url(#arr2)"/>
  <line x1="350" y1="199" x2="380" y2="199" stroke="#666" marker-end="url(#arr2)"/>
  <line x1="460" y1="199" x2="490" y2="199" stroke="#666" marker-end="url(#arr2)"/>

  <rect x="500" y="245" width="100" height="28" rx="6" fill="#fce4ec" stroke="#c2185b"/>
  <text x="550" y="263" text-anchor="middle" fill="#333">UniAD</text>
  <rect x="620" y="245" width="120" height="28" rx="6" fill="#fce4ec" stroke="#c2185b"/>
  <text x="680" y="263" text-anchor="middle" fill="#333">SparseDrive(V2)</text>
  <line x1="600" y1="259" x2="620" y2="259" stroke="#666" marker-end="url(#arr2)"/>

  <path d="M450 83 C 470 83, 490 245, 500 259" stroke="#bbb" fill="none" stroke-dasharray="4 3"/>
  <path d="M460 134 C 480 134, 490 245, 500 259" stroke="#bbb" fill="none" stroke-dasharray="4 3"/>
  <path d="M590 199 C 600 199, 605 245, 600 259" stroke="#bbb" fill="none" stroke-dasharray="4 3"/>

  <rect x="490" y="290" width="100" height="24" rx="6" fill="#ede7f6" stroke="#673ab7"/>
  <text x="540" y="307" text-anchor="middle" fill="#333">OccFormer</text>
  <rect x="620" y="290" width="120" height="24" rx="6" fill="#ede7f6" stroke="#673ab7"/>
  <text x="680" y="307" text-anchor="middle" fill="#333">4D World Model</text>
  <line x1="590" y1="302" x2="620" y2="302" stroke="#666" marker-end="url(#arr2)"/>
</svg>
